<svg id="Layer_1" data-name="Layer 1" xmlns="http://www.w3.org/2000/svg" xmlns:xlink="http://www.w3.org/1999/xlink" viewBox="0 0 932.03 933.4"><defs><style>.cls-1{fill:url(#linear-gradient);}.cls-2{fill:url(#linear-gradient-2);}.cls-3{fill:url(#linear-gradient-3);}</style><linearGradient id="linear-gradient" x1="537.54" y1="885.98" x2="222.45" y2="123.21" gradientUnits="userSpaceOnUse"><stop offset="0" stop-color="#fff"/><stop offset="0.24" stop-color="#f9f9f9"/><stop offset="0.57" stop-color="#e8e9e9"/><stop offset="0.93" stop-color="#cdcecf"/><stop offset="1" stop-color="#c7c8c9"/></linearGradient><linearGradient id="linear-gradient-2" x1="281.74" y1="632.31" x2="286.52" y2="919.95" gradientTransform="translate(63.98 97.59)" gradientUnits="userSpaceOnUse"><stop offset="0" stop-color="#fff"/><stop offset="1" stop-color="#c7c8c9"/></linearGradient><linearGradient id="linear-gradient-3" x1="288.22" y1="36.66" x2="423" y2="821.14" gradientTransform="matrix(1, 0, 0, 1, 0, 0)" xlink:href="#linear-gradient-2"/></defs><path class="cls-1" d="M852.1,481.59c-64.7,0-56.2,53.79-106.1,53.79a54.35,54.35,0,0,1-12.58-1.48,53.31,53.31,0,0,1-11.57-4.24,53.83,53.83,0,0,1-18.53-15.35,49.93,49.93,0,0,1-7.74-14,34.58,34.58,0,0,1-2-11.12V306c0-.6,0-1.21-.05-1.81,0-.39,0-.75,0-1.12a66.65,66.65,0,0,0-66.32-63H66.41A66.62,66.62,0,0,0,0,304.76c0,.57,0,1.13,0,1.71V506.65a53.75,53.75,0,0,0,53.77,53.78c50.07,0,41.09-53.78,106.08-53.78a79.94,79.94,0,0,1,0,159.87c-64.7,0-56.19-53.77-106.08-53.77A53.75,53.75,0,0,0,0,666.52V867A66.62,66.62,0,0,0,66.41,933.4H627.2A66.61,66.61,0,0,0,693.6,867V666.52c0-1,0-2-.08-3,0-7.26-.07-14.46-.13-21.71-.07-7,.22-14.66,3-21.17a55,55,0,0,1,10.21-15.81A53.63,53.63,0,0,1,746,587.68c50.15,0,41,53.78,106.1,53.78a79.94,79.94,0,0,0,0-159.87Z"/><path class="cls-2" d="M693.6,722.68V867a66.6,66.6,0,0,1-66.4,66.42H66.4A66.61,66.61,0,0,1,0,867V752.61C68.1,736,143.55,740.58,209.21,765c35.75,13.32,62,38,92.91,59.16,20.28,13.87,43.32,25.09,67.88,28.26a154.93,154.93,0,0,0,54.63-2.86c18-4.19,33.51-12.84,50.2-19.89,36-15.24,68.63-40.93,101.25-62.17,8.29-5.4,16.63-10.72,25.08-15.87,27.54-16.75,59-34.58,92.12-34.84A51.71,51.71,0,0,1,693.6,722.68Z"/><path class="cls-3" d="M693.56,304.19c0-.38,0-.76,0-1.12a64.94,64.94,0,0,0-2.24-14.31,66.67,66.67,0,0,0-64.07-49H447.3c-14.42,0-29.34,1.14-42.86-4.86a51.23,51.23,0,0,1-6.65-3.57A53.7,53.7,0,0,1,373,186c0-50.14,53.77-41,53.77-106.1a79.93,79.93,0,0,0-159.86,0c0,64.71,53.77,56.21,53.77,106.1a53.75,53.75,0,0,1-32.89,49.57c-6.13,2.58-12.49,3.46-19.08,4-7.25.57-14.45.22-21.68.22H66.4A66.61,66.61,0,0,0,0,304.76c0,.57,0,1.14,0,1.7V450.77a51.54,51.54,0,0,0,.32,5.86c33.17-.26,64.58-18.08,92.12-34.83,8.45-5.15,16.8-10.48,25.08-15.87,32.62-21.24,65.22-46.93,101.26-62.18,16.69-7,32.24-15.69,50.19-19.88A154.74,154.74,0,0,1,323.61,321c24.55,3.16,47.6,14.38,67.87,28.26,31,21.21,57.16,45.83,92.92,59.15,65.66,24.45,141.1,29.07,209.2,12.41V306C693.6,305.4,693.59,304.79,693.56,304.19Z"/></svg>