<?xml version="1.0" encoding="UTF-8"?>
<svg width="800" height="600" viewBox="0 0 800 600" fill="none" xmlns="http://www.w3.org/2000/svg">
  <!-- Background Glow -->
  <defs>
    <radialGradient id="glow" cx="50%" cy="50%" r="50%" gradientUnits="userSpaceOnUse">
      <stop offset="0%" stop-color="#a8b1ff" stop-opacity="0.2"/>
      <stop offset="100%" stop-color="#a8b1ff" stop-opacity="0"/>
    </radialGradient>
  </defs>
  <circle cx="400" cy="300" r="250" fill="url(#glow)"/>

  <!-- Minecraft Glass Block -->
  <g transform="translate(300, 150) scale(1.2)">
    <!-- Front Face -->
    <path d="M0 40L80 0L160 40L80 80L0 40Z" fill="#c4caff" fill-opacity="0.6"/>
    <!-- Right Face -->
    <path d="M160 40L80 80L80 160L160 120L160 40Z" fill="#b6beff" fill-opacity="0.6"/>
    <!-- Left Face -->
    <path d="M0 40L80 80L80 160L0 120L0 40Z" fill="#a8b1ff" fill-opacity="0.6"/>
    <!-- Glass Highlights -->
    <path d="M20 50L60 30L140 70L100 90L20 50Z" fill="white" fill-opacity="0.2"/>
    <path d="M90 90L90 150L110 140L110 80L90 90Z" fill="white" fill-opacity="0.15"/>
  </g>

  <!-- Documentation Book -->
  <g transform="translate(450, 250) rotate(-15)">
    <!-- Book Cover -->
    <path d="M0 30C0 13.4315 13.4315 0 30 0H150C166.569 0 180 13.4315 180 30V200C180 216.569 166.569 230 150 230H30C13.4315 230 0 216.569 0 200V30Z" fill="#8891ff"/>
    <!-- Pages -->
    <path d="M10 25C10 11.1929 21.1929 0 35 0H155C168.807 0 180 11.1929 180 25V205C180 218.807 168.807 230 155 230H35C21.1929 230 10 218.807 10 205V25Z" fill="#F8FAFC"/>
    <!-- Text Lines -->
    <rect x="40" y="50" width="100" height="4" rx="2" fill="#94A3B8"/>
    <rect x="40" y="70" width="80" height="4" rx="2" fill="#94A3B8"/>
    <rect x="40" y="90" width="90" height="4" rx="2" fill="#94A3B8"/>
    <rect x="40" y="110" width="70" height="4" rx="2" fill="#94A3B8"/>
  </g>

  <!-- Discord Integration Lines -->
  <g stroke="#a8b1ff" stroke-width="2" stroke-linecap="round">
    <path d="M280 300C240 320 200 280 160 300" stroke-dasharray="4 6"/>
    <path d="M520 300C560 320 600 280 640 300" stroke-dasharray="4 6"/>
  </g>

  <!-- Floating Particles -->
  <g fill="#a8b1ff">
    <circle cx="200" cy="150" r="3" opacity="0.6"/>
    <circle cx="600" cy="150" r="2" opacity="0.4"/>
    <circle cx="250" cy="450" r="2" opacity="0.5"/>
    <circle cx="550" cy="450" r="3" opacity="0.3"/>
    <circle cx="400" cy="100" r="2" opacity="0.4"/>
    <circle cx="400" cy="500" r="2" opacity="0.6"/>
  </g>
</svg>